<svg width="1440" height="964" viewBox="0 0 1440 964" fill="none" xmlns="http://www.w3.org/2000/svg">
<g clip-path="url(#clip0_150_22)">
<path opacity="0.1" d="M126.304 120.751C239.167 101.481 285.349 31.6843 300.8 172.445C316.251 313.205 237.283 442.935 124.42 462.205C11.558 481.476 -34.6237 551.272 -50.0747 410.512C-65.5257 269.752 13.4418 140.021 126.304 120.751Z" fill="url(#paint0_linear_150_22)"/>
<path opacity="0.1" d="M1331.1 940.685C1217.32 947.605 1166.43 1012.11 1160.88 870.207C1155.33 728.303 1243.07 607.657 1356.85 600.737C1470.63 593.818 1521.52 529.311 1527.07 671.215C1532.62 813.12 1444.88 933.766 1331.1 940.685Z" fill="url(#paint1_linear_150_22)"/>
<path opacity="0.8" d="M186.406 453.085C241.991 577.097 310.951 605.24 211.517 674.565C112.084 743.889 -13.583 699.556 -69.1677 575.544C-124.752 451.533 -193.712 423.389 -94.2788 354.065C5.15461 284.74 130.822 329.073 186.406 453.085Z" fill="url(#paint2_linear_150_22)"/>
<path opacity="0.8" d="M1527.17 353.546C1559.06 546.391 1653.13 616.345 1469.85 663.487C1286.58 710.628 1112.16 592.513 1080.27 399.668C1048.38 206.824 954.316 136.869 1137.59 89.7276C1320.86 42.586 1495.28 160.701 1527.17 353.546Z" fill="url(#paint3_linear_150_22)"/>
</g>
<defs>
<linearGradient id="paint0_linear_150_22" x1="-59.6729" y1="323.071" x2="312.845" y2="282.181" gradientUnits="userSpaceOnUse">
<stop offset="0.45697" stop-color="#221168"/>
<stop offset="1" stop-color="#FF0303"/>
</linearGradient>
<linearGradient id="paint1_linear_150_22" x1="1530.51" y1="759.367" x2="1157.12" y2="773.966" gradientUnits="userSpaceOnUse">
<stop offset="0.45697" stop-color="#221168"/>
<stop offset="1" stop-color="#FF0303"/>
</linearGradient>
<linearGradient id="paint2_linear_150_22" x1="-32.5105" y1="311" x2="217.874" y2="670.133" gradientUnits="userSpaceOnUse">
<stop offset="0.45697" stop-color="#221168"/>
<stop offset="1" stop-color="#FF0303"/>
</linearGradient>
<linearGradient id="paint3_linear_150_22" x1="1251.44" y1="60.4431" x2="1410.48" y2="678.758" gradientUnits="userSpaceOnUse">
<stop offset="0.45697" stop-color="#221168"/>
<stop offset="1" stop-color="#FF0303"/>
</linearGradient>
<clipPath id="clip0_150_22">
<rect width="1750.99" height="964" fill="white" transform="translate(-160)"/>
</clipPath>
</defs>
</svg>
